# xmcd
#
# Track frame offsets:
#	150
#	18128
#	34103
#	50035
#	66003
#	84533
#	108300
#	124590
#	138288
#	161265
#	178738
#	194670
#	208818
#
# Disc length: 3096 seconds
#
# Revision: 0
# Processed by: cddbd v1.4PL0 Copyright (c) Steve Scherf et al.
# Submitted via: EasyCDDAExtractor 4.6.0.1
#
DISCID=b10c160d
DTITLE=Nilufer - Sensiz Olmaz
DYEAR=1900
DGENRE=
TTITLE0=Sensiz Olmaz
TTITLE1=Taa Uzak Yollardan
TTITLE2=Hatiralar Hayal Oldu
TTITLE3=Pisman Etme
TTITLE4=Sende Gozum Yok
TTITLE5=Yalnizligimla Basbasa
TTITLE6=Donsen Bile
TTITLE7=Intizar
TTITLE8=Tanrim
TTITLE9=Benim Icin Oldun Artik
TTITLE10=Ask Kitabi
TTITLE11=Neredesin Nerede
TTITLE12=Elveda
EXTD=
EXTT0=
EXTT1=
EXTT2=
EXTT3=
EXTT4=
EXTT5=
EXTT6=
EXTT7=
EXTT8=
EXTT9=
EXTT10=
EXTT11=
EXTT12=
PLAYORDER=
